<?xml version="1.0" standalone="no"?>
<!DOCTYPE svg PUBLIC "-//W3C//DTD SVG 20010904//EN"
 "http://www.w3.org/TR/2001/REC-SVG-20010904/DTD/svg10.dtd">
<svg version="1.0" xmlns="http://www.w3.org/2000/svg"
 width="896.000000pt" height="896.000000pt" viewBox="0 0 896.000000 896.000000"
 preserveAspectRatio="xMidYMid meet">
<metadata>
Created by potrace 1.14, written by Peter Selinger 2001-2017
</metadata>
<g transform="translate(0.000000,896.000000) scale(0.100000,-0.100000)"
fill="#000000" stroke="none">
<path d="M4279 8297 c-92 -144 -463 -728 -826 -1297 -363 -569 -888 -1392
-1166 -1829 -278 -437 -504 -798 -501 -802 3 -5 157 -95 342 -200 1697 -966
2290 -1303 2309 -1311 18 -9 112 41 650 347 345 197 941 536 1323 753 382 217
700 400 707 406 8 8 -7 39 -59 121 -39 61 -379 594 -756 1185 -377 591 -859
1347 -1071 1680 -212 333 -471 740 -576 904 -104 165 -195 301 -200 302 -6 2
-85 -114 -176 -259z m101 -1408 l0 -1280 -77 -36 c-187 -85 -2170 -966 -2186
-970 -10 -3 78 143 224 373 133 209 462 726 732 1149 270 424 630 988 800
1255 170 267 353 554 406 637 53 84 97 153 99 153 1 0 2 -576 2 -1281z m785
286 c541 -848 1312 -2059 1551 -2435 44 -69 83 -130 87 -136 4 -7 -506 216
-1133 495 l-1140 506 0 1280 c0 749 4 1275 9 1270 5 -6 287 -446 626 -980z
m-785 -2925 c0 -655 -2 -1190 -4 -1190 -3 0 -271 152 -598 338 -326 186 -853
486 -1171 667 -318 181 -574 331 -570 335 5 3 298 135 653 293 355 157 877
390 1160 516 283 127 518 230 523 231 4 0 7 -535 7 -1190z m1323 671 c631
-280 1154 -514 1162 -518 11 -6 -44 -43 -197 -130 -603 -343 -2096 -1192
-2115 -1202 l-23 -12 0 1192 c0 949 3 1190 13 1186 6 -3 528 -235 1160 -516z"/>
<path d="M7890 5263 c0 -6 30 -94 67 -194 l67 -182 348 -410 c342 -403 347
-410 330 -431 -9 -12 -166 -195 -347 -406 l-330 -385 -69 -183 c-37 -101 -66
-185 -64 -188 7 -7 1020 1175 1016 1186 -2 5 -223 269 -493 586 -269 318 -498
587 -507 599 -10 11 -17 15 -18 8z"/>
<path d="M773 4988 c-127 -150 -353 -417 -502 -593 -149 -176 -270 -325 -269
-332 3 -13 979 -1153 1006 -1175 13 -11 15 -10 10 2 -3 8 -34 93 -69 188 l-64
174 -342 398 c-187 220 -344 403 -347 409 -4 5 121 160 276 343 156 184 312
368 347 410 59 70 68 88 132 259 38 101 69 185 69 187 0 17 -52 -40 -247 -270z"/>
<path d="M1792 3942 c7 -10 162 -216 343 -456 182 -241 449 -596 595 -789 821
-1089 1089 -1444 1314 -1742 137 -181 283 -376 325 -432 42 -56 79 -102 83
-103 8 0 30 28 638 835 272 361 706 936 964 1278 258 342 604 801 769 1020
165 219 297 400 294 403 -3 3 -155 -82 -339 -189 -183 -107 -583 -339 -888
-517 -305 -177 -752 -437 -993 -577 -393 -229 -441 -254 -462 -245 -13 6 -158
89 -322 185 -164 96 -482 281 -708 412 -225 131 -679 395 -1008 587 -329 191
-603 348 -608 348 -6 0 -4 -8 3 -18z m4391 -989 c-219 -291 -517 -686 -663
-880 -146 -193 -426 -566 -623 -827 -198 -262 -361 -476 -363 -476 -2 0 -4
342 -4 759 l0 759 43 24 c23 13 308 179 632 368 325 188 730 424 900 523 171
99 346 202 390 228 44 26 81 48 83 48 1 1 -176 -236 -395 -526z m-2998 27
c418 -243 858 -499 978 -568 l217 -127 0 -764 c0 -421 -4 -761 -8 -755 -5 5
-175 230 -377 499 -203 270 -658 874 -1012 1342 -354 469 -643 855 -643 859 0
3 19 -5 43 -19 23 -14 384 -224 802 -467z"/>
</g>
</svg>
